<?xml version="1.0" encoding="utf-8"?>
<!-- Generator: Adobe Illustrator 25.0.0, SVG Export Plug-In . SVG Version: 6.00 Build 0)  -->
<svg version="1.1" id="Capa_1" xmlns="http://www.w3.org/2000/svg" xmlns:xlink="http://www.w3.org/1999/xlink" x="0px" y="0px"
	 viewBox="0 0 128 128" style="enable-background:new 0 0 128 128;" xml:space="preserve">
<style type="text/css">
	.st0{fill:#155DFC;}
</style>
<path class="st0" d="M64,32H48c-2.9,0-5.3,2.4-5.3,5.3v53.3c0,2.9,2.4,5.3,5.3,5.3c2.9,0,5.3-2.4,5.3-5.3v-16H64
	c11.8,0,21.3-9.6,21.3-21.3S75.8,32,64,32z M64,64H53.3V42.7H64c5.9,0,10.7,4.8,10.7,10.7S69.9,64,64,64z M101.3,10.7H26.7
	c-8.8,0-16,7.2-16,16v74.7c0,8.8,7.2,16,16,16h74.7c8.8,0,16-7.2,16-16V26.7C117.3,17.8,110.2,10.7,101.3,10.7z M106.7,101.3
	c0,2.9-2.4,5.3-5.3,5.3H26.7c-2.9,0-5.3-2.4-5.3-5.3V26.7c0-2.9,2.4-5.3,5.3-5.3h74.7c2.9,0,5.3,2.4,5.3,5.3V101.3z"/>
</svg>
